<svg width="512" height="512" viewBox="0 0 512 512" fill="none" xmlns="http://www.w3.org/2000/svg">
<g clip-path="url(#clip0_319_50)">
<path d="M511.997 41.433V256.023H255.999V0H469.674C474.872 0 479.905 0.889 484.524 2.666C495.991 6.866 505.066 15.751 509.274 26.895C511.007 31.418 511.997 36.344 511.997 41.433Z" fill="url(#paint0_linear_319_50)"/>
<path d="M255.998 0V256.023H0V41.433C0 18.576 18.9754 0 42.3228 0H255.998Z" fill="url(#paint1_linear_319_50)"/>
<path d="M512 256.01V470.58C512 493.483 493.051 512 469.689 512H255.981V256.01H512Z" fill="url(#paint2_linear_319_50)"/>
<path d="M255.998 256.023V511.963H42.3228C36.4656 511.963 30.9382 510.831 25.9053 508.733C15.6749 504.533 7.50804 496.457 3.21773 486.523C1.15532 481.595 0 476.266 0 470.61V256.023H255.998Z" fill="url(#paint3_linear_319_50)"/>
<path d="M139.082 117.862V86.02H116.922V117.862H83.6499V137.94H116.922V170.045H139.082V137.94H172.357V117.862H139.082Z" fill="white"/>
<path d="M417.581 117.17H350.402V138.892H417.581V117.17Z" fill="white"/>
<path d="M167.596 359.53L153.93 346.624L128.001 371.116L102.076 346.624L88.4097 359.53L114.335 384.021L88.4097 408.506L102.076 421.418L128.001 396.927L153.93 421.418L167.596 408.506L141.668 384.021L167.596 359.53Z" fill="white"/>
<path opacity="0.4" d="M345.924 394.289V408.342H422.072V394.289H345.924ZM345.924 359.722V373.775H422.072V359.722H345.924Z" fill="url(#paint4_linear_319_50)"/>
<path d="M259.298 0H252.698V511.962H259.298V0Z" fill="#D4D4D4"/>
<path d="M511.997 252.791H0V259.253H511.997V252.791Z" fill="#D4D4D4"/>
<path d="M343.944 393.078V407.05H420.174V393.078H343.944ZM343.944 358.511V372.564H420.174V358.511H343.944Z" fill="white"/>
<path d="M137.146 116.643V84.8008H114.987V116.643H81.7144V136.722H114.987V168.827H137.146V136.722H170.422V116.643H137.146Z" fill="#979696"/>
<path d="M415.646 115.952H348.467V137.674H415.646V115.952Z" fill="#979696"/>
<path d="M165.661 358.312L151.994 345.406L126.065 369.898L100.141 345.406L86.4751 358.312L112.4 382.803L86.4751 407.288L100.141 420.2L126.065 395.709L151.994 420.2L165.661 407.288L139.732 382.803L165.661 358.312Z" fill="#979696"/>
</g>
<defs>
<linearGradient id="paint0_linear_319_50" x1="255.999" y1="128.011" x2="511.997" y2="128.011" gradientUnits="userSpaceOnUse">
<stop offset="0.0918" stop-color="#FBFBFC"/>
<stop offset="1" stop-color="#F7F7F7"/>
</linearGradient>
<linearGradient id="paint1_linear_319_50" x1="0" y1="128.011" x2="255.999" y2="128.011" gradientUnits="userSpaceOnUse">
<stop offset="0.0918" stop-color="#FBFBFC"/>
<stop offset="1" stop-color="#F7F7F7"/>
</linearGradient>
<linearGradient id="paint2_linear_319_50" x1="-0.0374298" y1="384.005" x2="512" y2="384.005" gradientUnits="userSpaceOnUse">
<stop offset="0.0338" stop-color="#57BDB0"/>
<stop offset="1" stop-color="#54BB9E"/>
</linearGradient>
<linearGradient id="paint3_linear_319_50" x1="0" y1="383.992" x2="255.999" y2="383.992" gradientUnits="userSpaceOnUse">
<stop offset="0.0918" stop-color="#FBFBFC"/>
<stop offset="1" stop-color="#F7F7F7"/>
</linearGradient>
<linearGradient id="paint4_linear_319_50" x1="345.924" y1="384.032" x2="422.072" y2="384.032" gradientUnits="userSpaceOnUse">
<stop offset="0.0338" stop-color="white"/>
<stop offset="1" stop-color="#54BB9E"/>
</linearGradient>
<clipPath id="clip0_319_50">
<rect width="512" height="512" fill="white"/>
</clipPath>
</defs>
</svg>
